<svg  viewBox="0 0 40 40" fill="none" xmlns="http://www.w3.org/2000/svg">
  <circle cx="20" cy="20" r="20" fill="#E2E8F0"/>
  <path d="M13.8203 23.6641C15.9714 22.7891 18.0312 22.3516 20 22.3516C21.9688 22.3516 24.0104 22.7891 26.125 23.6641C28.276 24.5026 29.3516 25.6146 29.3516 27V29.3516H10.6484V27C10.6484 25.6146 11.7057 24.5026 13.8203 23.6641ZM23.2812 18.6328C22.3698 19.5443 21.276 20 20 20C18.724 20 17.6302 19.5443 16.7188 18.6328C15.8073 17.7214 15.3516 16.6276 15.3516 15.3516C15.3516 14.0755 15.8073 12.9818 16.7188 12.0703C17.6302 11.1224 18.724 10.6484 20 10.6484C21.276 10.6484 22.3698 11.1224 23.2812 12.0703C24.1927 12.9818 24.6484 14.0755 24.6484 15.3516C24.6484 16.6276 24.1927 17.7214 23.2812 18.6328Z" fill="white"/>
</svg>
